<svg width="40" height="40" viewBox="0 0 40 40" fill="none" xmlns="http://www.w3.org/2000/svg">
<path fill-rule="evenodd" clip-rule="evenodd" d="M5.16129 0C6.93398 0 8.49795 0.903402 9.42721 2.27961C10.0411 2.66303 11.0948 3.04347 12.6879 3.04347C14.1376 3.04347 15.1926 2.72845 15.881 2.38282C16.8008 0.948746 18.3982 0 20.2149 0C22.1606 0 23.8548 1.08835 24.7343 2.69566C25.3307 2.89769 26.1102 3.04347 27.0964 3.04347C28.8174 3.04347 29.9822 2.59951 30.6376 2.18742C31.5737 0.863198 33.1071 0 34.8399 0C37.6904 0 40.0012 2.33591 40.0012 5.2174C40.0012 8.09889 37.6904 10.4348 34.8399 10.4348C33.4106 10.4348 32.1171 9.84754 31.1824 8.89871V9.13043C31.1554 9.00745 31.0973 8.86127 31.0011 8.70502C30.8849 8.57444 30.7752 8.4379 30.6724 8.29591C30.1007 7.72894 29.0043 7.17391 27.0964 7.17391C26.1874 7.17391 25.4765 7.2439 24.9261 7.35126C24.1193 9.16886 22.3133 10.4348 20.2149 10.4348C18.8929 10.4348 17.6871 9.93243 16.774 9.10624V9.13043C16.7717 9.12032 16.7693 9.11004 16.7666 9.09962C16.3917 8.75908 16.0663 8.36383 15.8029 7.92631C15.1659 7.51002 14.1726 7.17391 12.6879 7.17391C12.0837 7.17391 11.5671 7.20483 11.1269 7.2571L18.7749 14.9883C19.232 14.8544 19.7151 14.7826 20.2149 14.7826C21.7559 14.7826 23.1391 15.4653 24.0848 16.5477V16.5218C24.3716 16.9566 25.5472 17.8262 27.9558 17.8262C28.9077 17.8262 29.6895 17.6904 30.309 17.4992C31.1852 15.8804 32.8857 14.7826 34.8399 14.7826C37.6904 14.7826 40.0012 17.1185 40.0012 20C40.0012 21.5583 39.3253 22.9571 38.2538 23.9131H38.279C37.8489 24.2029 36.9887 25.3913 36.9887 27.8261C36.9887 28.7864 37.1225 29.5753 37.3109 30.2009C38.9139 31.0862 40.0012 32.8061 40.0012 34.7826C40.0012 37.6641 37.6904 40 34.8399 40C32.8018 40 31.0396 38.8059 30.2007 37.072C29.6231 36.8711 28.8858 36.7392 27.9558 36.7392C26.3455 36.7392 25.3567 36.9589 24.7812 37.2168C23.9159 38.872 22.1957 40 20.2149 40C17.3644 40 15.0536 37.6641 15.0536 34.7826C15.0536 34.3386 15.1085 33.9074 15.2117 33.4958L7.56003 25.761C7.41183 26.3143 7.31236 26.9982 7.31236 27.8261C7.31236 28.7872 7.44637 29.5766 7.63505 30.2024C9.23652 31.0882 10.3226 32.8072 10.3226 34.7826C10.3226 37.6641 8.01179 40 5.16129 40C2.31079 40 0 37.6641 0 34.7826C0 32.7217 1.18207 30.9399 2.89824 30.0922C3.09633 29.5088 3.22633 28.7646 3.22633 27.8261C3.22633 26.1974 3.00878 25.1976 2.75345 24.616C1.11594 23.7414 0 22.0024 0 20C0 17.1185 2.31079 14.7826 5.16129 14.7826C8.01179 14.7826 10.3226 17.1185 10.3226 20C10.3226 20.444 10.2677 20.875 10.1645 21.2866L10.1657 21.2853L18.6107 29.8221C19.1156 29.6554 19.6548 29.5652 20.2149 29.5652C21.7559 29.5652 23.1391 30.2479 24.0848 31.3304V31.3044C24.3716 31.7392 25.5472 32.6088 27.9558 32.6088C28.9077 32.6088 29.6895 32.4729 30.309 32.2818C30.8208 31.3363 31.6137 30.5686 32.5741 30.0935C32.7725 29.5099 32.9027 28.7653 32.9027 27.8261C32.9027 26.1959 32.6847 25.1958 32.4291 24.6144C31.4645 24.0984 30.6812 23.2825 30.2007 22.2894C29.6231 22.0885 28.8859 21.9566 27.9558 21.9566C26.3454 21.9566 25.3566 22.1763 24.7811 22.4342C23.9158 24.0894 22.1957 25.2174 20.2149 25.2174C17.3644 25.2174 15.0536 22.8815 15.0536 20C15.0536 19.4941 15.1248 19.005 15.2577 18.5424L6.92722 10.1214C6.3763 10.3242 5.78157 10.4348 5.16129 10.4348C2.31079 10.4348 0 8.09889 0 5.2174C0 2.33591 2.31079 0 5.16129 0Z" fill="url(#paint0_linear_2_9)"/>
<defs>
<linearGradient id="paint0_linear_2_9" x1="20.0006" y1="0" x2="20.0006" y2="40" gradientUnits="userSpaceOnUse">
<stop stop-color="#20F10F"/>
<stop offset="0.824" stop-color="#8C36CB"/>
</linearGradient>
</defs>
</svg>
