<svg width="87" height="16" viewBox="0 0 87 16" fill="none" xmlns="http://www.w3.org/2000/svg">
<g id="Group 10944">
<path id="Star 1" d="M8 0L9.79611 5.52786H15.6085L10.9062 8.94427L12.7023 14.4721L8 11.0557L3.29772 14.4721L5.09383 8.94427L0.391548 5.52786H6.20389L8 0Z" fill="white"/>
<path id="Star 2" d="M26 0L27.7961 5.52786H33.6085L28.9062 8.94427L30.7023 14.4721L26 11.0557L21.2977 14.4721L23.0938 8.94427L18.3915 5.52786H24.2039L26 0Z" fill="white"/>
<path id="Star 3" d="M43.5 0L45.4084 5.52786H51.584L46.5878 8.94427L48.4962 14.4721L43.5 11.0557L38.5038 14.4721L40.4122 8.94427L35.416 5.52786H41.5916L43.5 0Z" fill="white"/>
<path id="Star 4" d="M61 0L62.7961 5.52786H68.6085L63.9062 8.94427L65.7023 14.4721L61 11.0557L56.2977 14.4721L58.0938 8.94427L53.3915 5.52786H59.2039L61 0Z" fill="white"/>
<path id="Star 5" d="M79 0L80.7961 5.52786H86.6085L81.9062 8.94427L83.7023 14.4721L79 11.0557L74.2977 14.4721L76.0938 8.94427L71.3915 5.52786H77.2039L79 0Z" fill="#C3C3C3"/>
</g>
</svg>
